<svg xmlns="http://www.w3.org/2000/svg" width="24" height="24"><rect width="24" height="24" opacity="0"></rect><g><path d="M12.17 9.91Q12.43 9.98 12.59 10.22Q12.74 10.46 12.67 10.7L12.12 12.84L12.77 12.84Q13.06 12.84 13.25 13.03Q13.44 13.22 13.46 13.51Q13.46 13.78 13.27 13.98Q13.08 14.18 12.82 14.21L11.66 14.21Q11.21 14.21 10.88 13.82Q10.56 13.44 10.66 12.96L11.33 10.42Q11.4 10.13 11.65 9.98Q11.9 9.84 12.17 9.91ZM8.74 15.29Q9.36 16.01 10.2 16.4Q11.04 16.8 12 16.8Q12.96 16.8 13.8 16.4Q14.64 16.01 15.24 15.29Q15.43 15.07 15.72 15.05Q16.01 15.02 16.22 15.22Q16.44 15.41 16.46 15.68Q16.49 15.96 16.3 16.18Q15.5 17.14 14.39 17.65Q13.27 18.17 12 18.17Q10.75 18.17 9.62 17.65Q8.5 17.14 7.68 16.18Q7.51 15.96 7.54 15.67Q7.56 15.38 7.78 15.19Q7.99 15.02 8.27 15.05Q8.54 15.07 8.74 15.29ZM12 2.38Q9.38 2.38 7.18 3.67Q4.97 4.97 3.67 7.18Q2.38 9.38 2.38 12Q2.38 14.62 3.67 16.82Q4.97 19.03 7.18 20.33Q9.38 21.62 12 21.62Q14.62 21.62 16.82 20.33Q19.03 19.03 20.33 16.82Q21.62 14.62 21.62 12Q21.62 9.38 20.33 7.18Q19.03 4.97 16.82 3.67Q14.62 2.38 12 2.38ZM12 1.01Q14.98 1.01 17.51 2.48Q20.04 3.96 21.52 6.49Q22.99 9.02 22.99 12Q22.99 14.98 21.52 17.51Q20.04 20.04 17.51 21.52Q14.98 22.99 12 22.99Q9.02 22.99 6.49 21.52Q3.96 20.04 2.48 17.51Q1.01 14.98 1.01 12Q1.01 9.02 2.48 6.49Q3.96 3.96 6.49 2.48Q9.02 1.01 12 1.01ZM7.8 8.45Q8.26 8.45 8.58 8.77Q8.9 9.1 8.9 9.55Q8.9 10.01 8.58 10.33Q8.26 10.66 7.8 10.66Q7.34 10.66 7.02 10.33Q6.7 10.01 6.7 9.55Q6.7 9.1 7.02 8.77Q7.34 8.45 7.8 8.45ZM16.2 8.45Q16.66 8.45 16.97 8.77Q17.28 9.1 17.28 9.55Q17.28 10.01 16.97 10.33Q16.66 10.66 16.2 10.66Q15.74 10.66 15.42 10.33Q15.1 10.01 15.1 9.55Q15.1 9.1 15.42 8.77Q15.74 8.45 16.2 8.45Z" fill="rgba(61,115,184,1)"></path></g></svg>